<svg xmlns="http://www.w3.org/2000/svg" viewBox="0 0 372 340">
  <defs>
    <linearGradient id="crd" x1="0" y1="0" x2="1" y2="1"><stop offset="0" stop-color="#FBF6EB"/><stop offset="1" stop-color="#EEE5D2"/></linearGradient>
    <pattern id="wv" width="2.6" height="2.6" patternUnits="userSpaceOnUse"><path d="M0 0H2.6M0 0V2.6" stroke="#2A2521" stroke-opacity=".06" stroke-width=".7"/></pattern>
  </defs>
  <ellipse cx="186" cy="300" rx="160" ry="14" fill="#2A2521" opacity=".08"/>
  
  <g transform="translate(66 76) rotate(-7)">
    <rect x="0" y="0" width="216" height="216" rx="8" fill="#2A2521" opacity=".10" transform="translate(3 6)"/>
    <rect x="0" y="0" width="216" height="216" rx="8" fill="url(#crd)"/>
    
  </g>
  
  <g transform="translate(74 66) rotate(-3.5)">
    <rect x="0" y="0" width="216" height="216" rx="8" fill="#2A2521" opacity=".10" transform="translate(3 6)"/>
    <rect x="0" y="0" width="216" height="216" rx="8" fill="url(#crd)"/>
    
  </g>
  
  <g transform="translate(82 56) rotate(0)">
    <rect x="0" y="0" width="216" height="216" rx="8" fill="#2A2521" opacity=".10" transform="translate(3 6)"/>
    <rect x="0" y="0" width="216" height="216" rx="8" fill="url(#crd)"/>
    <svg x="0" y="0" width="216" height="216" viewBox="0 0 216 216"><rect x="0" y="0" width="24" height="24" fill="#EBE3D1"/><rect x="24" y="0" width="24" height="24" fill="#EBE3D1"/><rect x="144" y="0" width="24" height="24" fill="#EBE3D1"/><rect x="168" y="0" width="24" height="24" fill="#EBE3D1"/><rect x="0" y="24" width="24" height="24" fill="#EBE3D1"/><rect x="168" y="24" width="24" height="24" fill="#EBE3D1"/><rect x="0" y="144" width="24" height="24" fill="#EBE3D1"/><rect x="168" y="144" width="24" height="24" fill="#EBE3D1"/><rect x="0" y="168" width="24" height="24" fill="#EBE3D1"/><rect x="24" y="168" width="24" height="24" fill="#EBE3D1"/><rect x="144" y="168" width="24" height="24" fill="#EBE3D1"/><rect x="168" y="168" width="24" height="24" fill="#EBE3D1"/><g stroke="#2A2521" stroke-opacity=".7" stroke-width="2.5" stroke-linecap="round"><path d="M73.92 24H94.08"/><path d="M97.92 24H118.08"/><path d="M25.92 48H46.08"/><path d="M49.92 48H70.08"/><path d="M25.92 72H46.08"/><path d="M144 49.92V70.08"/><path d="M72 73.92V94.08"/><path d="M49.92 96H70.08"/><path d="M73.92 120H94.08"/><path d="M120 97.92V118.08"/><path d="M97.92 120H118.08"/><path d="M144 97.92V118.08"/><path d="M145.92 120H166.08"/><path d="M49.92 144H70.08"/><path d="M121.92 144H142.08"/><path d="M97.92 168H118.08"/></g><circle cx="60.7" cy="12.9" r="2.7" fill="#2A2521" fill-opacity=".2"/><circle cx="60" cy="12" r="2.6" fill="#6F7B88"/><circle cx="59.2" cy="11.2" r="0.85" fill="#FFFFFF" fill-opacity=".9"/><circle cx="84.7" cy="12.9" r="2.7" fill="#2A2521" fill-opacity=".2"/><circle cx="84" cy="12" r="2.6" fill="#6F7B88"/><circle cx="83.2" cy="11.2" r="0.85" fill="#FFFFFF" fill-opacity=".9"/><circle cx="108.7" cy="12.9" r="2.7" fill="#2A2521" fill-opacity=".2"/><circle cx="108" cy="12" r="2.6" fill="#6F7B88"/><circle cx="107.2" cy="11.2" r="0.85" fill="#FFFFFF" fill-opacity=".9"/><circle cx="132.7" cy="12.9" r="2.7" fill="#2A2521" fill-opacity=".2"/><circle cx="132" cy="12" r="2.6" fill="#6F7B88"/><circle cx="131.2" cy="11.2" r="0.85" fill="#FFFFFF" fill-opacity=".9"/><circle cx="36" cy="36" r="7.199999999999999" fill="none" stroke="#9C7A2E" stroke-width="1.4" opacity=".85"/><circle cx="36.8" cy="37" r="3.6" fill="#2A2521" fill-opacity=".22"/><circle cx="36" cy="36" r="3.6" fill="#9C7A2E"/><circle cx="34.9" cy="34.9" r="1.1" fill="#F4E4B4"/><circle cx="60.7" cy="36.9" r="2.7" fill="#2A2521" fill-opacity=".2"/><circle cx="60" cy="36" r="2.6" fill="#6F7B88"/><circle cx="59.2" cy="35.2" r="0.85" fill="#FFFFFF" fill-opacity=".9"/><circle cx="84.7" cy="36.9" r="2.7" fill="#2A2521" fill-opacity=".2"/><circle cx="84" cy="36" r="2.6" fill="#6F7B88"/><circle cx="83.2" cy="35.2" r="0.85" fill="#FFFFFF" fill-opacity=".9"/><circle cx="108.7" cy="36.9" r="2.7" fill="#2A2521" fill-opacity=".2"/><circle cx="108" cy="36" r="2.6" fill="#6F7B88"/><circle cx="107.2" cy="35.2" r="0.85" fill="#FFFFFF" fill-opacity=".9"/><circle cx="132.7" cy="36.9" r="2.7" fill="#2A2521" fill-opacity=".2"/><circle cx="132" cy="36" r="2.6" fill="#6F7B88"/><circle cx="131.2" cy="35.2" r="0.85" fill="#FFFFFF" fill-opacity=".9"/><circle cx="156.7" cy="36.9" r="2.7" fill="#2A2521" fill-opacity=".2"/><circle cx="156" cy="36" r="2.6" fill="#6F7B88"/><circle cx="155.2" cy="35.2" r="0.85" fill="#FFFFFF" fill-opacity=".9"/><circle cx="12.7" cy="60.9" r="2.7" fill="#2A2521" fill-opacity=".2"/><circle cx="12" cy="60" r="2.6" fill="#6F7B88"/><circle cx="11.2" cy="59.2" r="0.85" fill="#FFFFFF" fill-opacity=".9"/><circle cx="36.7" cy="60.9" r="2.7" fill="#2A2521" fill-opacity=".2"/><circle cx="36" cy="60" r="2.6" fill="#6F7B88"/><circle cx="35.2" cy="59.2" r="0.85" fill="#FFFFFF" fill-opacity=".9"/><circle cx="60.7" cy="60.9" r="2.7" fill="#2A2521" fill-opacity=".2"/><circle cx="60" cy="60" r="2.6" fill="#6F7B88"/><circle cx="59.2" cy="59.2" r="0.85" fill="#FFFFFF" fill-opacity=".9"/><circle cx="84.7" cy="60.9" r="2.7" fill="#2A2521" fill-opacity=".2"/><circle cx="84" cy="60" r="2.6" fill="#6F7B88"/><circle cx="83.2" cy="59.2" r="0.85" fill="#FFFFFF" fill-opacity=".9"/><circle cx="108.7" cy="60.9" r="2.7" fill="#2A2521" fill-opacity=".2"/><circle cx="108" cy="60" r="2.6" fill="#6F7B88"/><circle cx="107.2" cy="59.2" r="0.85" fill="#FFFFFF" fill-opacity=".9"/><circle cx="132.7" cy="60.9" r="2.7" fill="#2A2521" fill-opacity=".2"/><circle cx="132" cy="60" r="2.6" fill="#6F7B88"/><circle cx="131.2" cy="59.2" r="0.85" fill="#FFFFFF" fill-opacity=".9"/><circle cx="156.7" cy="60.9" r="2.7" fill="#2A2521" fill-opacity=".2"/><circle cx="156" cy="60" r="2.6" fill="#6F7B88"/><circle cx="155.2" cy="59.2" r="0.85" fill="#FFFFFF" fill-opacity=".9"/><circle cx="180.7" cy="60.9" r="2.7" fill="#2A2521" fill-opacity=".2"/><circle cx="180" cy="60" r="2.6" fill="#6F7B88"/><circle cx="179.2" cy="59.2" r="0.85" fill="#FFFFFF" fill-opacity=".9"/><circle cx="12.7" cy="84.9" r="2.7" fill="#2A2521" fill-opacity=".2"/><circle cx="12" cy="84" r="2.6" fill="#6F7B88"/><circle cx="11.2" cy="83.2" r="0.85" fill="#FFFFFF" fill-opacity=".9"/><circle cx="36.7" cy="84.9" r="2.7" fill="#2A2521" fill-opacity=".2"/><circle cx="36" cy="84" r="2.6" fill="#6F7B88"/><circle cx="35.2" cy="83.2" r="0.85" fill="#FFFFFF" fill-opacity=".9"/><circle cx="60.7" cy="84.9" r="2.7" fill="#2A2521" fill-opacity=".2"/><circle cx="60" cy="84" r="2.6" fill="#6F7B88"/><circle cx="59.2" cy="83.2" r="0.85" fill="#FFFFFF" fill-opacity=".9"/><circle cx="84.7" cy="84.9" r="2.7" fill="#2A2521" fill-opacity=".2"/><circle cx="84" cy="84" r="2.6" fill="#6F7B88"/><circle cx="83.2" cy="83.2" r="0.85" fill="#FFFFFF" fill-opacity=".9"/><circle cx="108.7" cy="84.9" r="2.7" fill="#2A2521" fill-opacity=".2"/><circle cx="108" cy="84" r="2.6" fill="#6F7B88"/><circle cx="107.2" cy="83.2" r="0.85" fill="#FFFFFF" fill-opacity=".9"/><circle cx="132.7" cy="84.9" r="2.7" fill="#2A2521" fill-opacity=".2"/><circle cx="132" cy="84" r="2.6" fill="#6F7B88"/><circle cx="131.2" cy="83.2" r="0.85" fill="#FFFFFF" fill-opacity=".9"/><circle cx="156.7" cy="84.9" r="2.7" fill="#2A2521" fill-opacity=".2"/><circle cx="156" cy="84" r="2.6" fill="#6F7B88"/><circle cx="155.2" cy="83.2" r="0.85" fill="#FFFFFF" fill-opacity=".9"/><circle cx="180.7" cy="84.9" r="2.7" fill="#2A2521" fill-opacity=".2"/><circle cx="180" cy="84" r="2.6" fill="#6F7B88"/><circle cx="179.2" cy="83.2" r="0.85" fill="#FFFFFF" fill-opacity=".9"/><circle cx="12.7" cy="108.9" r="2.7" fill="#2A2521" fill-opacity=".2"/><circle cx="12" cy="108" r="2.6" fill="#6F7B88"/><circle cx="11.2" cy="107.2" r="0.85" fill="#FFFFFF" fill-opacity=".9"/><circle cx="36.7" cy="108.9" r="2.7" fill="#2A2521" fill-opacity=".2"/><circle cx="36" cy="108" r="2.6" fill="#6F7B88"/><circle cx="35.2" cy="107.2" r="0.85" fill="#FFFFFF" fill-opacity=".9"/><circle cx="60.7" cy="108.9" r="2.7" fill="#2A2521" fill-opacity=".2"/><circle cx="60" cy="108" r="2.6" fill="#6F7B88"/><circle cx="59.2" cy="107.2" r="0.85" fill="#FFFFFF" fill-opacity=".9"/><circle cx="84.7" cy="108.9" r="2.7" fill="#2A2521" fill-opacity=".2"/><circle cx="84" cy="108" r="2.6" fill="#6F7B88"/><circle cx="83.2" cy="107.2" r="0.85" fill="#FFFFFF" fill-opacity=".9"/><circle cx="108.7" cy="108.9" r="2.7" fill="#2A2521" fill-opacity=".2"/><circle cx="108" cy="108" r="2.6" fill="#6F7B88"/><circle cx="107.2" cy="107.2" r="0.85" fill="#FFFFFF" fill-opacity=".9"/><circle cx="132.7" cy="108.9" r="2.7" fill="#2A2521" fill-opacity=".2"/><circle cx="132" cy="108" r="2.6" fill="#6F7B88"/><circle cx="131.2" cy="107.2" r="0.85" fill="#FFFFFF" fill-opacity=".9"/><circle cx="156.7" cy="108.9" r="2.7" fill="#2A2521" fill-opacity=".2"/><circle cx="156" cy="108" r="2.6" fill="#6F7B88"/><circle cx="155.2" cy="107.2" r="0.85" fill="#FFFFFF" fill-opacity=".9"/><circle cx="180.7" cy="108.9" r="2.7" fill="#2A2521" fill-opacity=".2"/><circle cx="180" cy="108" r="2.6" fill="#6F7B88"/><circle cx="179.2" cy="107.2" r="0.85" fill="#FFFFFF" fill-opacity=".9"/><circle cx="12.7" cy="132.9" r="2.7" fill="#2A2521" fill-opacity=".2"/><circle cx="12" cy="132" r="2.6" fill="#6F7B88"/><circle cx="11.2" cy="131.2" r="0.85" fill="#FFFFFF" fill-opacity=".9"/><circle cx="36.7" cy="132.9" r="2.7" fill="#2A2521" fill-opacity=".2"/><circle cx="36" cy="132" r="2.6" fill="#6F7B88"/><circle cx="35.2" cy="131.2" r="0.85" fill="#FFFFFF" fill-opacity=".9"/><circle cx="60.8" cy="133" r="3.6" fill="#2A2521" fill-opacity=".22"/><circle cx="60" cy="132" r="3.6" fill="#9C7A2E"/><circle cx="58.9" cy="130.9" r="1.1" fill="#F4E4B4"/><circle cx="84.7" cy="132.9" r="2.7" fill="#2A2521" fill-opacity=".2"/><circle cx="84" cy="132" r="2.6" fill="#6F7B88"/><circle cx="83.2" cy="131.2" r="0.85" fill="#FFFFFF" fill-opacity=".9"/><circle cx="108.7" cy="132.9" r="2.7" fill="#2A2521" fill-opacity=".2"/><circle cx="108" cy="132" r="2.6" fill="#6F7B88"/><circle cx="107.2" cy="131.2" r="0.85" fill="#FFFFFF" fill-opacity=".9"/><circle cx="132.7" cy="132.9" r="2.7" fill="#2A2521" fill-opacity=".2"/><circle cx="132" cy="132" r="2.6" fill="#6F7B88"/><circle cx="131.2" cy="131.2" r="0.85" fill="#FFFFFF" fill-opacity=".9"/><circle cx="156.7" cy="132.9" r="2.7" fill="#2A2521" fill-opacity=".2"/><circle cx="156" cy="132" r="2.6" fill="#6F7B88"/><circle cx="155.2" cy="131.2" r="0.85" fill="#FFFFFF" fill-opacity=".9"/><circle cx="180.7" cy="132.9" r="2.7" fill="#2A2521" fill-opacity=".2"/><circle cx="180" cy="132" r="2.6" fill="#6F7B88"/><circle cx="179.2" cy="131.2" r="0.85" fill="#FFFFFF" fill-opacity=".9"/><circle cx="36.7" cy="156.9" r="2.7" fill="#2A2521" fill-opacity=".2"/><circle cx="36" cy="156" r="2.6" fill="#6F7B88"/><circle cx="35.2" cy="155.2" r="0.85" fill="#FFFFFF" fill-opacity=".9"/><circle cx="60.7" cy="156.9" r="2.7" fill="#2A2521" fill-opacity=".2"/><circle cx="60" cy="156" r="2.6" fill="#6F7B88"/><circle cx="59.2" cy="155.2" r="0.85" fill="#FFFFFF" fill-opacity=".9"/><circle cx="84.7" cy="156.9" r="2.7" fill="#2A2521" fill-opacity=".2"/><circle cx="84" cy="156" r="2.6" fill="#6F7B88"/><circle cx="83.2" cy="155.2" r="0.85" fill="#FFFFFF" fill-opacity=".9"/><circle cx="108.7" cy="156.9" r="2.7" fill="#2A2521" fill-opacity=".2"/><circle cx="108" cy="156" r="2.6" fill="#6F7B88"/><circle cx="107.2" cy="155.2" r="0.85" fill="#FFFFFF" fill-opacity=".9"/><circle cx="132.7" cy="156.9" r="2.7" fill="#2A2521" fill-opacity=".2"/><circle cx="132" cy="156" r="2.6" fill="#6F7B88"/><circle cx="131.2" cy="155.2" r="0.85" fill="#FFFFFF" fill-opacity=".9"/><circle cx="156.7" cy="156.9" r="2.7" fill="#2A2521" fill-opacity=".2"/><circle cx="156" cy="156" r="2.6" fill="#6F7B88"/><circle cx="155.2" cy="155.2" r="0.85" fill="#FFFFFF" fill-opacity=".9"/><circle cx="60.7" cy="180.9" r="2.7" fill="#2A2521" fill-opacity=".2"/><circle cx="60" cy="180" r="2.6" fill="#6F7B88"/><circle cx="59.2" cy="179.2" r="0.85" fill="#FFFFFF" fill-opacity=".9"/><circle cx="84.7" cy="180.9" r="2.7" fill="#2A2521" fill-opacity=".2"/><circle cx="84" cy="180" r="2.6" fill="#6F7B88"/><circle cx="83.2" cy="179.2" r="0.85" fill="#FFFFFF" fill-opacity=".9"/><circle cx="108.7" cy="180.9" r="2.7" fill="#2A2521" fill-opacity=".2"/><circle cx="108" cy="180" r="2.6" fill="#6F7B88"/><circle cx="107.2" cy="179.2" r="0.85" fill="#FFFFFF" fill-opacity=".9"/><circle cx="132.7" cy="180.9" r="2.7" fill="#2A2521" fill-opacity=".2"/><circle cx="132" cy="180" r="2.6" fill="#6F7B88"/><circle cx="131.2" cy="179.2" r="0.85" fill="#FFFFFF" fill-opacity=".9"/></svg>
    <text x="98" y="206" text-anchor="middle" font-family="-apple-system, system-ui, sans-serif" font-size="7.5" font-weight="600" letter-spacing="2" fill="#655B52">PATTERN 61 · A MEDALLION</text>
  </g>
  <!-- the ribbon marker, down the card's right edge -->
  <path d="M276 56 V302 L287 291 L298 302 V56 Z" fill="#A8413A"/>
  <path d="M276 56 V302 L287 291" fill="none" stroke="#FFFFFF" stroke-opacity=".18" stroke-width="2"/>
  <!-- the pin cushion -->
  <g transform="translate(318 236)">
    <ellipse cx="0" cy="44" rx="34" ry="8" fill="#2A2521" opacity=".12"/>
    <ellipse cx="0" cy="14" rx="34" ry="30" fill="#31497A"/>
    <ellipse cx="0" cy="4" rx="30" ry="18" fill="#3E5A92"/>
    <path d="M-30 4 Q0 -2 30 4" fill="none" stroke="#8FA5D6" stroke-width="1.2" opacity=".6"/>
    <g stroke="#6F7B88" stroke-width="1.6" stroke-linecap="round">
      <path d="M-14 0 L-20 -28"/><path d="M0 -4 L2 -34"/><path d="M14 0 L22 -26"/>
    </g>
    <g fill="#9C7A2E"><circle cx="-20" cy="-30" r="3.4"/><circle cx="2" cy="-36" r="3.4"/><circle cx="22" cy="-28" r="3.4"/></g>
    <g fill="#F0DDA3"><circle cx="-21" cy="-31" r="1"/><circle cx="1" cy="-37" r="1"/><circle cx="21" cy="-29" r="1"/></g>
  </g>
</svg>